<svg aria-hidden="true" style="position: absolute; width: 0; height: 0; overflow: hidden;" version="1.1" xmlns="http://www.w3.org/2000/svg" xmlns:xlink="http://www.w3.org/1999/xlink">
<defs>
<symbol id="icon-email" viewBox="0 0 32 32">
<path d="M28.25 2.117h-24.5c-2.068 0-3.75 1.682-3.75 3.75v16c0 2.068 1.682 3.75 3.75 3.75h24.5c2.068 0 3.75-1.682 3.75-3.75v-16c0-2.068-1.682-3.75-3.75-3.75zM29.5 21.867c0 0.689-0.561 1.25-1.25 1.25h-24.5c-0.689 0-1.25-0.561-1.25-1.25v-16c0-0.689 0.561-1.25 1.25-1.25h24.5c0.689 0 1.25 0.561 1.25 1.25v16z"></path>
<path d="M29.288 5.809l-13.288 9.884-13.288-9.884-1.492 2.006 14.78 10.993 14.78-10.993-1.492-2.006z"></path>
</symbol>
<symbol id="icon-facebook" viewBox="0 0 32 32">
<path d="M18.478 32v-14.596h4.897l0.735-5.69h-5.632v-3.632c0-1.647 0.455-2.769 2.82-2.769l3.010-0.001v-5.089c-0.521-0.068-2.308-0.223-4.388-0.223-4.343 0-7.317 2.651-7.317 7.519v4.196h-4.912v5.69h4.912v14.596h5.874z"></path>
</symbol>
<symbol id="icon-instagram" viewBox="0 0 32 32">
<path d="M16.005 7.784c-4.537 0-8.211 3.677-8.211 8.211 0 4.537 3.677 8.211 8.211 8.211 4.537 0 8.211-3.677 8.211-8.211 0-4.537-3.677-8.211-8.211-8.211zM16.005 21.324c-2.945 0-5.329-2.385-5.329-5.329s2.385-5.329 5.329-5.329c2.944 0 5.329 2.385 5.329 5.329 0.001 2.944-2.384 5.329-5.329 5.329z"></path>
<path d="M22.597 0.101c-2.944-0.137-10.236-0.131-13.183 0-2.589 0.121-4.873 0.747-6.715 2.588-3.077 3.077-2.684 7.224-2.684 13.305 0 6.224-0.347 10.275 2.684 13.305 3.089 3.088 7.296 2.684 13.305 2.684 6.165 0 8.293 0.004 10.473-0.84 2.964-1.151 5.201-3.8 5.42-8.559 0.139-2.945 0.131-10.236 0-13.183-0.264-5.617-3.279-9.024-9.301-9.301zM27.257 27.264c-2.017 2.017-4.816 1.837-11.291 1.837-6.667 0-9.34 0.099-11.291-1.857-2.247-2.236-1.84-5.827-1.84-11.271 0-7.367-0.756-12.672 6.637-13.051 1.699-0.060 2.199-0.080 6.475-0.080l0.060 0.040c7.105 0 12.68-0.744 13.015 6.648 0.076 1.687 0.093 2.193 0.093 6.463-0.001 6.589 0.124 9.279-1.859 11.271z"></path>
<path d="M24.541 9.379c1.060 0 1.919-0.859 1.919-1.919s-0.859-1.919-1.919-1.919c-1.060 0-1.919 0.859-1.919 1.919s0.859 1.919 1.919 1.919z"></path>
</symbol>
</defs>
</svg>
